<?xml version="1.0" encoding="utf-8"?>
<!-- Generator: Adobe Illustrator 24.0.2, SVG Export Plug-In . SVG Version: 6.00 Build 0)  -->
<svg version="1.1" id="Capa_1" xmlns="http://www.w3.org/2000/svg" xmlns:xlink="http://www.w3.org/1999/xlink" x="0px" y="0px"
	 viewBox="0 0 30.5 30.5" style="enable-background:new 0 0 30.5 30.5;" xml:space="preserve">
<style type="text/css">
	.st0{fill:#FFFFFF;}
</style>
<g>
	
		<image style="overflow:visible;opacity:0.93;" width="181" height="181" xlink:href="DAB3DDB5.png"  transform="matrix(1 0 0 1 -75 -75.543)">
	</image>
	<g>
		<g>
			<path class="st0" d="M29.7,14.5c-0.5-0.2-1,0-1.3,0.4c-1.8,2.2-4.4,3.4-7.3,3.4c-5.2,0-9.4-4.2-9.4-9.4c0-2.6,1.1-5,3-6.8
				c0.4-0.3,0.5-0.9,0.3-1.3C14.7,0.3,14.3,0,13.8,0C5.9,0.8,0,7.3,0,15.2c0,8.4,6.8,15.2,15.2,15.2c8.3,0,15-6.5,15.2-14.8
				C30.5,15.1,30.2,14.7,29.7,14.5z"/>
		</g>
	</g>
</g>
</svg>
