<?xml version="1.0" encoding="utf-8"?>
<!-- Generator: Adobe Illustrator 24.0.2, SVG Export Plug-In . SVG Version: 6.00 Build 0)  -->
<svg version="1.1" id="Layer_1" xmlns="http://www.w3.org/2000/svg" xmlns:xlink="http://www.w3.org/1999/xlink" x="0px" y="0px"
	 viewBox="0 0 123.7 139.6" style="enable-background:new 0 0 123.7 139.6;" xml:space="preserve">
<g>
	<path d="M30.7,80.3c-0.6,0.8-1.6,0.8-2.5,1c-1.2,0.2-1.9,0.2-2.6-0.1c0.5-0.1,0.9,0,1.2-0.2c0.3-0.2,0.6-0.6,0.8-0.9
		c0.5-0.8,1-1.6,1.5-2.4c0.1-0.2,0.2-0.4,0.2-0.6c-0.3-1.8,0.5-3.3,1.1-5c-0.7,0.4-1.4,0.8-2,1.2c-1.7,1.1-3.4,1.9-5.3,2.6
		c-2.4,1-4.3,0.2-6.3-0.7c-1.1-0.5-2.1-1-3.5-0.5c-0.9,0.3-2,0.3-3,0.3c-1.1-0.1-2,0.1-2.9,0.7c-1.4,1-3.1,1.2-4.7,1.4
		c-0.9,0.1-1.8-0.2-2.6-0.5c1.4-0.1,2.8-0.1,4.1-0.2c1.4-0.2,2.6-0.9,3.7-1.8c-1.1-0.5-1.6-0.5-3.4-0.2c-1.5,0.3-2.9,0.2-4.1-0.8
		c0.4,0.1,0.9,0.3,1.3,0.3c1,0,1.9,0.1,2.9-0.1c1.6-0.3,3.1-0.2,4.6,0.2c1.8,0.4,3.4,0,5.1-0.6c-3.7-4.5-8.8-5.5-14-6.2
		c0-0.1,0.1-0.2,0.1-0.3c1.9,0.3,3.9,0.4,5.8,0.8c1.9,0.5,3.7,1.3,5.6,2c-0.1-0.9-0.2-1.9-0.3-2.9c-2.1-0.8-4.2-1.5-6.3-2.3
		c1.2-0.2,2.1,0.4,3.1,0.7c1,0.3,2,0.6,3,1c0.3-0.9,0-1.5-0.6-1.9c-0.9-0.6-1.9-1.2-2.9-1.7c-0.8-0.4-1.6-0.8-2.4-1.3
		c0.5,0.1,1.1,0.1,1.5,0.2C7.5,61.7,8,62,8.5,62.3c0.5,0.2,1,0.4,1.4,0.7c0.5,0.3,1,0.6,1.5,1c0.2,0.2,0.6,0.4,0.6,0.7
		c0.1,1.4,1.3,2.3,1.7,3.5c0.1,0.4,0,0.8,0,1.3c-0.1,1.3,0.2,2.4,1.4,3.2c0.7,0.4,1.3,0.9,1.9,1.4c1.1,0.9,2.4,1.2,3.7,1.3
		c0.2,0,0.4,0,0.6,0c0.6-0.3,1.3-0.5,1.9-0.8c0.6-0.3,1.3-0.5,2.1-0.9c-0.8-0.5-1.4-0.8-1.9-1.2c-0.9-0.5-1.5-1.1-1.8-2.1
		c-0.3-1-0.7-1.9-1-2.9c1,0.7,1.2,1.9,1.8,2.8c0.2,0.4,0.5,0.9,0.8,1.1c1,0.5,2.1,1,3.2,1.5c1.9-1.3,3.7-2.7,5.8-4.1
		c-0.6-0.1-1-0.3-1.5-0.3c-2.8-0.4-5.4-1.4-7.6-3.1c-0.5-0.3-1.1-0.5-1.5-0.7c0-0.1,0.2-0.4,0.1-0.5c-1.1-1.1-2.3-2.3-3.5-3.3
		c-0.4-0.3-1.1-0.3-1.7-0.3c-2.2,0-3.3-0.2-5-1.4c1.3,0.3,2.4,0.6,3.5,0.8c1.1,0.2,2.3,0.2,3.7,0.2c-0.5-0.8-0.9-1.5-1.3-2.2
		c-1.2-1.7-1.2-1.7-2.6-2.5c0,0-0.1-0.1-0.3-0.3c0.8,0.2,1.3,0.4,1.9,0.5c1.4,0.3,2.7,0.7,4.1,1c1.7,0.4,3.2,1.1,4.6,2.4
		c0.2,0.8-0.1,1.7-0.5,2.6c-0.5,1.3-0.4,1.5,0.7,2.3c2.5,2,5.3,2.6,8.4,2.4c2-0.1,4,0.3,6,0.5c0.1,0,0.3,0,0.6,0c-0.7-1-1.3-2-2-2.8
		c-0.9-1-1.8-2-2.2-3.3c-0.2-0.7-0.8-1-1.4-1.2c-0.5-0.1-0.9-0.3-1.3-0.5c1.7,0,3,0.4,3.6,2.2c0.1,0.3,0.3,0.6,0.5,0.8
		c1,1.1,2,2.1,2.9,3.2c0.7-1.3,0.6-2.5-0.1-3.6c0.9,0.7,0.9,0.8,1,1.6c0,0.4,0.1,0.9,0,1.3c-0.5,1.6,0.4,2.5,1.5,3.1
		c1.5,0.9,3.2,1.7,4.7,2.5c-0.3-4.6-0.6-9.2-0.9-14.1c-1.4-0.7-3.1-0.6-4.6,0.1c-2.3,1.1-4.6,1.2-7,1.2c-1.8,0-3.6-0.2-5.4-0.3
		c-0.5,0-1-0.2-1.9-0.4c4.6-0.1,8.9,0.7,13.1-0.4c0-0.1,0-0.3,0-0.4c-2.1-0.7-4.2-1.3-6.3-2c0-0.1,0.1-0.2,0.1-0.3
		c1.7,0.4,3.3,0.8,5,1.3c1.2,0.4,2.3,0.4,3.5,0.3c1.1-0.1,2.3-0.2,3.6-0.3c0-1.5,0-3.2,0-5.1c-0.6-0.1-1.3-0.4-2-0.4
		c-1.2-0.1-2.4,0.1-3.5,0c-1,0-2-0.2-3-0.4c-1.4-0.3-2.9-0.4-4.3,0.1c-2.1,0.8-4.2,1.1-6.4,0.3c-0.9-0.3-2-0.2-3-0.4
		c-0.6-0.1-1.2-0.2-1.7-0.4c-0.2-0.1-0.5-0.4-0.5-0.7c-0.1-1.6-1.3-2.1-2.6-2.4c-0.3-0.1-0.6-0.1-1-0.2c2.2-0.4,3.1,0,4,2
		c0.4,0.8,0.9,1.2,1.7,1c1.3-0.2,2.4,0.1,3.6,0.4c1.8,0.5,3.6,0.3,5.3-0.4c0.6-0.2,1.2-0.4,1.8-0.7c-0.7-0.8-1.4-1.6-2.1-2.4
		c-1.1-1.2-2.5-2-4.2-2.2c-1.8-0.1-3.2-1.1-4.7-1.9c1.6,0.5,3.1,0.9,4.7,1.4c0.1-0.1,0.1-0.3,0.2-0.4c-1.3-1-3.3-0.7-4.3-2.7
		c2.2,1.8,5,1.9,7.1,4c0-1.4,0.4-2.3,1-3.1c0.7-1,0.2-2-1.2-2.6c-0.9-0.4-1.8-0.8-2.7-1.2c1.7,0.3,3.4,0.8,4.9,2.2
		c0,0.4,0,0.9-0.2,1.4c-0.8,2.1,0.2,3.8,1,5.6c0.1,0.2,0.4,0.4,0.6,0.5c2,1,4.1,1.9,6.6,1.3c-0.6-0.5-1.1-1-1.6-1.5
		c-0.5-0.6-0.2-1.3,0.2-2.1c0.1,0.2,0.1,0.3,0.2,0.4c0.2,1.8,1.3,3,3,3.1c1,0.1,1.9,0,3,0c0.1-0.5,0.3-1.2,0.4-1.9
		c0.3-3.5,0.7-6.9,0.9-10.4c0.1-1.5-0.4-3.1-0.7-4.6c-0.2-0.9-0.8-1.4-1.7-1.5c-1-0.2-2.1-0.5-3.1-0.6c-0.5-0.1-1.1,0-1.5,0.2
		c-1.3,0.6-2.5,1.2-3.9,1.2c-0.7,0-1.5,0.5-2.1,1c-1.2,0.9-2.5,1.3-4,1c-0.6-0.1-1.3-0.1-1.9-0.2c2.3-0.1,4.6,0.1,6.4-2
		c-1.7,0-3.3,0-4.9,0c-0.9,0-1.9,0.3-2.8-0.5c2.3,0,4.6,0,6.9,0c0.9,0,1.9,0.4,2.7-0.4c0.1-0.1,0.4,0,0.6,0.1c1,0.3,1.7-0.2,2.7-0.9
		c-0.8,0-1.4,0-1.9-0.1c-1.3-0.1-2.5-0.5-3.2-1.8c-0.4-0.7-1.2-1-1.9-1c-1.5,0.1-2.9-0.3-4.4-0.3c2.2,0,4.4-0.6,6.6,0.4
		c0.3,1.4,1.4,1.9,2.6,1.9c2.5-0.1,5,0.5,7.5,0.8c0.2,0,0.3,0,0.7,0c-1.1-2.1-2.1-4.2-3.6-5.9c-0.6-0.7-1.5-1-2.4-1.1
		c-3.7-0.3-7-1.8-10.1-3.6c-0.8-0.5-1.4-1.4-2-2.2c-0.3-0.4-0.5-1-0.9-1.8c1.6,1,1.9,3,3.7,3.7c-0.1-1.4-0.3-2.7-0.3-4
		c0-1.3,0.2-2.5,0.3-3.5c0.1,0.3,0.3,1.8,0.1,2.9c-0.3,1.4,0.3,2.7,0.4,4.1c0,0.3,0.3,0.6,0.6,0.7c1.6,0.8,3.2,1.6,4.9,2.3
		c0.9,0.4,2,0.4,3,0.5c1.3,0.1,2.5,0.4,3.7,1.2c-0.5-1.3-0.9-2.6-1.4-3.8c-0.1-0.3-0.6-0.6-0.9-0.8c-0.4-0.2-0.9-0.3-1.3-0.7
		c0.5,0.1,1,0.1,1.6,0.3c-0.6-1.5-1.6-2.6-2.1-4c-0.5-1.4-1.2-2.7-1.6-4.1c1.1,0.5,0.8,1.8,1.5,2.6c0.7,0.8,1,1.8,1.6,2.7
		c0.5,0.9,1.1,1.8,1.7,2.6c0.5-0.8,0.9-1.5,1.4-2.2c1.1-1.4,1.1-2.4-0.1-3.7c-0.6-0.7-1.4-1.3-2-2c-0.6-0.6-1-1.2-0.6-2.3
		c0.4,2.3,2.7,2.9,3.9,4.5c0-0.2,0.1-0.4,0-0.5c-0.7-1.4-0.5-2.7,0.3-4.1c0.4-0.6,0.4-1.4,0.6-2.1c0.3-1.2,0.6-2.4,1-3.8
		c0.4,1-0.2,1.8-0.2,2.7c0,0.4-0.2,0.8-0.3,1.2c-0.1,1-0.3,1.9-0.9,2.8c-0.5,0.8-0.9,1.6,0,2.4c0.3,1.8,0.2,3.6-0.8,5.2
		c-0.2,0.4-0.5,0.7-0.7,1c-0.5,1-0.3,1.8,0.7,2.4c0.9,0.6,1.9,1.1,2.5,2.1c0.6,1,0.7,2,0.4,3.1c-0.5,1.8-0.1,3.4,0.4,5.2
		c0.8-1.3,1.5-2.5,2.3-3.6c1.2-1.8,1.6-3.8,2-5.9c0.1-0.5-0.1-1.1-0.4-1.5c-0.8-1.2-1.8-2.4-2.7-3.6c0-0.2,0-0.5-0.1-0.9
		c-0.3-1-0.3-1.9,0.3-2.9c0.5-0.7,0.7-1.5,1.2-2.2c0,0.3,0,0.6-0.1,0.9c-0.1,0.4-0.3,0.8-0.5,1.1c-1.2,1.5-0.6,3,0.3,4.3
		c0.6,1,1.5,1.8,2.4,3c0.2-2,0.4-3.8,0.5-5.8c0.6,3.9,0,7.5-0.7,11c1.3-0.7,2.6-1.4,3.8-2.2c0.4-0.2,0.6-0.7,0.8-1.1
		c0,0,0.2,0.2,0.4,0.5c0.3-0.2,0.6-0.4,0.9-0.6c0.6-0.3,0.7-0.9,0.3-1.4c-0.8-1.2-1-2.5-1.1-3.9c-0.1-0.7-0.3-1.5-0.7-2.1
		c-0.5-0.8-0.5-1.7-0.2-2.6c0.6,2.2,1.1,4.5,1.7,6.7c0.2,0.8,0.8,1.5,1.2,2.4c0,1-0.9,1.6-1.9,2.2c0.7,1.6,2.5,2.3,3.3,3.9
		c1.4-1.6,2.5-3.1,2.6-5.2c0-1.2,0.1-2.5,0.2-3.7c0.2-1.8,0.6-3.5,0.7-5.3C65,8,66,6.7,66.6,5.3c0.5,0.4,0.3,0.7,0,1.1
		c-0.4,0.7-1,1.5-1.1,2.3c-0.4,3.2-0.6,6.5-0.6,9.9c0.2-0.3,0.4-0.5,0.6-0.8c0.3-0.4,0.6-0.9,1-1c1.3-0.3,1.8-1.1,2.1-2.3
		c0.1-0.5,0.4-0.7,0.9-0.7c-0.6,1.8-1.4,3.3-3.3,4c-0.4,0.2-0.6,0.7-0.9,1.1c-1.2,1.9-2.3,3.8-3.5,5.8c-1.1,1.9-1.6,4.1-1.9,6.4
		c1-0.3,1.8-0.6,2.7-0.9c0.8-0.3,1.2-0.7,1.1-1.7c-0.2-1.4,0.6-2,2-1.8c-0.3,0.8-2,0.4-1.4,1.8c0.9,0,1.8,0,2.7,0
		c0.7,0,1.4-0.1,2.1-0.3c1.5-0.4,3-0.9,4.5-1.3c-0.1,0.1-0.1,0.4-0.2,0.4c-2.3,0.8-4.4,1.9-6.9,1.9c-0.5,0-1.1,0-1.3,0.2
		c-1.1,1.2-2.6,1.6-4,2.2c-0.5,0.2-1.1,0.6-1.3,1c-0.7,1.5-0.9,3.1-0.8,4.9c0.6-0.4,1.1-0.7,1.5-1.1c0.2,0.2,0.3,0.3,0.3,0.4
		c-0.7,0.4-1.4,0.9-2.1,1.3c-0.1,0.7-0.2,1.4-0.4,2.1c0.8,0.2,1.5,0.3,2.2,0.5c0,0.1,0,0.2,0,0.3c-0.8,0-1.5-0.1-2.3-0.1
		c-0.5,1.2-0.9,2.3-1.5,3.7c0.8-0.5,1.4-0.9,2.1-1.2c0.4-0.2,1.1-0.4,1.4-0.3c1.1,0.5,1.9,0.2,2.9-0.2c0.6-0.2,1.4-0.4,2-0.3
		c1.6,0.4,2.8-0.1,4.1-0.9c0.4-0.3,0.9-0.4,1.3-0.5c-0.4,0.4-0.7,0.8-1.1,1c-1.3,0.8-2.6,1.6-4.3,1c-0.5-0.2-1.1,0.2-1.7,0.3
		c-0.8,0.2-1.7,0.7-2.4,0.6c-1.1-0.3-1.8,0-2.6,0.6c-0.4,0.3-0.9,0.5-1.4,0.8c-3.8,2.6-6.5,5.7-5.9,10.7c0,0.3,0,0.5,0,0.8
		c0,1.1,0.1,2.3,0,3.4c-0.4,2.6-0.4,5.2,0.1,7.8c0.7,3.4,1.9,6.6,3.7,9.6c0.1-0.3,0.3-0.4,0.3-0.6c0.7-2.3,1.6-4.4,3-6.3
		c1.1-1.5,1-2.8-0.5-3.9c-1.3-1-1.7-2.4-2.2-3.8c-0.5-1.2-0.2-2.4,0.6-3.4c0.6-0.8,1.1-1.6,1.4-2.5c0.6-1.5,1.1-3,1.7-4.5
		c0.3-0.7,0.5-1.4,0.5-2.1c0-1,0.1-2,0.1-3c0.1,0,0.2,0,0.3,0c0,1.1,0,2.3,0,3.6c0.6-0.6,1-0.9,1.4-1.3c-0.2,0.6-0.6,0.9-0.8,1.4
		c-0.2,0.3-0.3,0.8-0.2,1.1c0.2,0.6,0.5,1.2,0.9,1.6c1.3,1.3,2.7,2.6,4.1,4c0.2-2.4,0.4-4.6,0.6-6.9c0.3,2.7,0.5,5.4,0.3,8.1
		c0,0.4,0,1.2,0.1,1.2c1,0.1,0.1,0.8,0.4,1c-1.4,0.8-1.2,2.5-2.1,3.9c0.7-0.1,1.1-0.1,1.5-0.3c1.4-0.6,2.8-1.1,4.1-1.8
		c1.4-0.8,2.3-2.1,2.3-3.8c0-1-0.1-2,0.1-2.8c0.4-1.3-0.1-2.4-0.7-3.5c-1-1.9-1.1-3.8,0.1-5.6c0.1-0.2,0.2-0.4,0.3-0.6
		c-0.1-0.2-0.2-0.4-0.4-0.5c-1.2-0.7-1.5-1.7-1.4-3c0.1-0.6,0.2-1.1,0.2-1.7c0-0.2-0.4-0.4-0.5-0.6c0.3-0.8-0.3-1.4-0.7-1.9
		c-0.6-0.6-1.2-1.3-1.7-1.9c1,0.7,1.9,1.6,2.8,2.5c0.9,0.8,0.9,1.7,0.8,2.8c-0.3,1.9-0.1,2.9,1.6,3.4c0.2-0.3,0.4-0.6,0.7-0.9
		c-0.8,1.3-0.3,2.2,0.7,3.1c0.3,0.2,0.4,0.6,0.5,1c0.4,1,0.8,2,1.3,3.3c0.7-1.2,1.3-2.2,1.7-3.3c0.4-1.1,0.2-2.1-0.6-3
		c-0.3-0.3-0.6-0.6-0.9-1c0.1-0.1,0.2-0.2,0.3-0.3c0.1,0.2,0.1,0.4,0.3,0.5c1.7,1.6,1.8,2.6,1,4.8c-0.2,0.5-0.2,1.1-0.2,1.7
		c0.1,0.6,0.3,1.2,0.4,1.8c-1.7,2.9-2.8,5.9-1,9.2c0.9-0.3,1.1-1,1.3-1.7c0.6-2,1.2-4.1,1.7-6c0.4,2.1-0.7,4.2-1.1,6.3
		c1.1-1.7,2.1-3.4,3.1-5.1c0.7-1.3,1.1-2.7,1.1-4.1c0-1.2,0-2.3,0.1-3.5c0.4-2.7,0.1-5.3-1.6-7.6c-0.3-0.5-0.6-1-0.9-1.5
		c-0.7-1-1.4-1.8-2.6-2.2c-1.2-0.3-2.3-0.7-3.5-1c-0.4-0.1-0.8-0.3-1.2-0.4c2.1,0.1,4.2,0.3,6,1.4c2,1.2,2.8,3.3,4.1,5.2
		c0.4-2.1,0.5-3.9,0.1-5.8c-0.3-1.2-0.8-2.4-1-3.7c-0.3-1.6-1.3-2.5-2.8-3.2c-2.1-0.9-4.4-1.8-5.5-4c-0.4,0.2-0.8,0.3-1.2,0.5
		c0.3-0.3,0.6-0.7,1-1.1c-0.8-0.9-0.7-2-0.4-3c0.4-1.4,0.6-2.8,1-4.2c-0.1,1.1,0,2.1-0.3,3.1c-0.3,1-0.6,2.1-0.2,3
		c0.7,1.5,1.5,3.1,3.2,3.8c1.4,0.5,2.7,1.1,4,1.7c0.1-0.1,0.2-0.2,0.2-0.3c-0.3-1.4-0.1-2.7,0.3-4c0.3-1.2,0-2.3-0.6-3.3
		c-0.8-1.1-1.8-2-2.4-3.2c-0.8-1.6-2.1-3.3-0.9-5.3c0.3-0.5,0.6-1.1,0.9-1.6c0.5-0.9,0.6-1.9,0.2-2.8C78.8,8,79,6.4,79.4,4.8
		c0.1-0.4,0.1-0.8,0.1-1.3c0.2,0.8,0.4,1.6,0,2.4C79,7,79.4,8.1,79.8,9c0.6,1.4,0.4,2.6-0.2,3.8c-0.1,0.2-0.2,0.4-0.3,0.6
		c-1.1,2.2-0.9,3.5,0.7,5.4c0.6,0.7,1,1.5,1.5,2.3c0.5,0.7,1,1.4,1.6,2.2c0.7-1.8,1.4-3.3,1.9-5c0.9-3.3,1.2-6.6,1.4-10
		c0.1-1.4,0.3-2.9,0.4-4.3c0.1,5.2-0.3,10.4-1.4,15.5c1.3-0.2,2.5-1.1,2.5-2.2c0-1.4,0.7-2.6,1-4c0.1-0.5,0.4,0.1,0.5-0.2
		c0.9-1.6,2.3-3,1.4-5.1c0-0.1,0.1-0.3,0.2-0.7c0.6,1.3,0.7,2.3,0.2,3.4c-0.5,1-0.7,2-1.5,2.9c-1.1,1.2-1.5,2.7-0.7,4.3
		c-0.2,0-0.5,0-0.6,0.2c-0.8,1.1-1.7,2-3.1,2.4c-0.3,0.1-0.5,0.5-0.7,0.8c-0.4,1-0.8,2.1-1.1,3.2c-0.8,2.6-0.9,5.1,0.1,7.7
		c0.5,1.4,1,2.8,1.5,4.2c0.2,0.6,0.3,1.1,0.4,1.7c0.1-1.3,0-2.6-0.1-3.9c-0.2-1.9,0.2-3.6,1.7-4.9c0.3-0.2,0.5-0.5,0.7-0.8
		c0.6-1,1.3-2.1,1.9-3.2c0.3-0.5,0.6-0.9,0.8-1.4c0.2-0.5,0.5-1-0.2-1.4c-0.4-0.3,0.4-0.7-0.2-1.1c-0.3-0.2-0.3-0.8-0.4-1.2
		c0.3,0.4,0.6,0.7,0.8,1.1c0.4,0.6,0.8,1,1.7,0.9c-0.1-1.4-0.4-2.9-0.4-4.4c0.1-1.4,0.6-2.8,1.4-4.1c-0.1,0.6-0.1,1.2-0.3,1.7
		c-0.8,1.8-0.6,3.6-0.3,5.4c0.1,0.9,0,1.8,0,2.8c1.4-0.6,2.7-1.2,3.9-1.8c0,0.1,0.1,0.1,0.1,0.2c-0.5,0.3-1,0.7-1.3,0.9
		c-0.3,1.1-0.6,2.1-0.9,3.1c0.1-0.9,0.3-1.7,0.5-2.9c-1,0.4-1.8,0.8-2.7,1.1c0.2,0.9,0.5,1.7,0.7,2.5c0.5,0,0.9,0.1,1.2,0.1
		c-0.5,0.8-0.5,1.7,0,2.5c0.3,0.6,0.6,1.2,1.1,2.1c0.7-2.1,1.3-4,2-6c0.1,0.2,0.3,0.4,0.3,0.6c-0.6,2.5-1.2,5-1.8,7.5
		c-0.2,0.6-0.6,1.2-0.7,2.1c0.7-0.3,1.4-0.6,2.1-1c0-0.8-0.1-1.6,0-2.4c0.1-0.8,0.6-1.5,1-2.2c0.1,1.4-1.2,2.7-0.2,4.3
		c1.6-1.1,3.3-2.1,4.9-3.1c0.3-1.3,0.4-2.6,0.9-3.8c0.7-1.7,1.8-3.2,2.8-4.8c0.3,0.1,0.6,0.2,1,0.3c-0.1,0-0.1,0-0.2,0
		c-1.1,0.3-1.8,1.7-1.7,3c0,0.4,0.1,0.7,0.1,1.1c0.2,1.9-0.8,3.2-2,4.5c1.1,2.3,2.2,4.6,3.4,6.9c1.2-2.7,0.9-5.8,2.7-8.2
		c-0.2,0.7-0.4,1.4-0.6,2.1c-0.3,1.4-0.5,2.9-0.9,4.3c-0.4,1.6-1,3.2-1.6,4.9c2.1-0.8,4.5-1.2,5.9-3.5c-0.1,0.3,0,0.7-0.2,0.9
		c-0.8,1.1-1.9,1.9-3.1,2.4c-1.1,0.4-2.2,0.7-3,1.5c-0.3,0.3-0.6,0.6-0.8,1c-0.6,1.5-1.1,3-1.7,4.7c0.7-0.4,1.2-0.6,1.6-0.8
		c1.7,0.2,3.3,0.4,4.9,0.4c0.9,0,1.6-0.6,2.1-1.3c0.4-0.6,0.8-1.2,1.3-2c0,0.9-0.9,2.2-2,3.5c0.1,0.1,0.2,0.2,0.5,0.5
		c-2.1-0.1-4-0.2-5.9-0.3c-0.2,0-0.3,0-0.5,0c-1.3,0.6-2.7,1-3.7,1.9c-1.6,1.4-3.3,2.2-5.2,2.9c-0.5,0.2-1,0.3-1.4,0.5
		c0.4,0.7,0.7,1.3,1,2c0.3,0.8,1,1.2,1.7,1.3c0.5,0.1,1.1,0.2,1.6,0.1c1.9-0.1,3.8,0.2,5.6,0.7c1.6,0.4,3.3-0.2,4.3-1.6
		c0.4-0.5,0.8-0.9,1.3-1.4c2.1,0.5,4.1,1,6.1,1.5c0,0.1,0,0.2-0.1,0.3c-0.9,0-1.7-0.2-2.6-0.5c-0.8-0.2-1.7-0.4-2.6-0.4
		c-0.7-0.1-1.3,0.2-1.6,0.8c-1.1,2-3,1.9-4.9,1.9c-0.6,0-1.3-0.3-1.9-0.4c-0.6-0.1-1.1-0.1-1.9-0.2c0.6,1.1,0.8,2.2,1.9,2.8
		c1.1,0.7,1,0.8,1.8,0.9c1.4,0,2.8,0.1,4.2,0.1c0,0.1,0,0.2,0,0.3c-1.7,0-3.4,0-5.1,0c-1,0-1.6-0.5-2-1.3c-0.3-0.7-0.7-1.3-1.1-2
		c-0.3-0.5-0.7-0.7-1.3-0.7c-0.6,0-1.2-0.1-1.7-0.2c-1.1-0.2-1.9-0.7-2.2-1.8c-0.3-1-1-1.3-1.9-1.4c-2.2-0.2-4.4,0.1-6.4,1.1
		c-1.1,0.5-1.8,1.3-2.1,2.4c-0.1,0.5-0.4,1-0.6,1.5c-1.5,3-3,6-4.5,8.9c-0.1,0.2-0.1,0.4-0.2,0.8c1.1-0.3,1.9-0.6,2.8-0.8
		c-0.8,1-2,1-3.2,1.2c-0.5,0.9-1,1.9-1.6,3c1.8-0.2,3.5-0.4,5.2-0.6c0.3,0.2,0.8,0.3,1.3,0.6c0.7,0.4,1.5,0.8,1.9,1.4
		c1.2,1.6,2.7,1.5,4.3,1.1c0.8-0.2,1.5-0.6,2.2-1c1.4-0.8,1.4-1,1-2.6c-0.3-1-0.4-2.1-0.5-3.1c0-0.3,0.2-0.5,0.3-1
		c0.1,1.3,0.2,2.2,0.3,3.2c0.1,0,0.2,0.1,0.3,0.1c0.1-0.2,0.2-0.3,0.3-0.5c0.1,1.2,0.1,2.4,0.2,3.6c1,0.2,2,0.4,3,0.7
		c1.4,0.4,2.3,0.2,2.7-1.3c0.5-1.5,2.1-2.2,3.9-1.9c-0.8,0.2-1.5,0.4-2.1,0.6c-0.8,0.2-1.3,0.7-1.5,1.5c-0.4,1.6-1.1,1.9-2.7,1.7
		c-0.2,0-0.4,0-0.6-0.1c-1.8-0.9-3.5-0.2-5.2,0.5c-0.7,0.3-1.5,0.6-2.4,1c0.9,0.5,1.9,0.7,2.8,0.8c0.9,0.1,1.9,0.3,2.8,0.3
		c1.3,0.1,2.6,0,3.8,0c0.2,0,0.4-0.1,0.6,0c1.8,0.5,3.5,0,5.1-0.7c0.9-0.4,1.8-1,2.5-1.6c0.3-0.2,0.3-0.7,0.4-1.1
		c0.1-0.8,0.5-1.3,1.3-1.5c0.9-0.2,1.7-0.6,2.7-0.6c0.9,0,1.7-0.4,2.7-0.5c-0.4,0.3-0.8,0.5-1.3,0.8c0,0.1,0,0.2,0,0.3
		c1.8-0.1,3.6-0.2,5.4-0.2c0,0.1,0,0.2,0,0.3c-0.6,0.1-1.1,0.2-1.7,0.2c-0.6,0.1-1.1,0.1-1.7,0.1c-1.8,0-3.5-0.1-5.3,0
		c-1.4,0.1-1.8,0.8-1.4,2.1c0,0.1,0.3,0.2,0.4,0.2c-0.5,0.3-1,0.5-1.4,0.8c-0.5,0.4-1,0.8-1.6,1.4c1.9,0.1,3.6,0.2,5.4,0.2
		c0.6,0,1.2-0.5,1.6-0.9c0.5-0.5,1-0.6,1.5-0.6c1.3,0.1,2.5-0.1,3.7,0.6c0.5,0.3,1.2,0.1,1.8,0.2c0.4,0.1,0.7,0.3,1.1,0.4
		c0.4,0.1,0.8,0.1,1.5,0.1c-0.3,0.1-0.5,0.2-0.5,0.2c-1.9-0.2-3.7,0.3-5.5,0.5c-2.8,0.3-5.6,0.5-8.6,0.7c0.3,0.3,0.5,0.5,0.7,0.6
		c0.7,0.3,1.3,0.7,2,0.9c1.3,0.5,2.6,0.7,3.9,0.3c1-0.3,2-0.3,3-0.1c1.6,0.3,3.2,0.3,4.8,0.4c0.3,0,0.6,0.1,0.9,0.3
		c-0.3,0-0.5,0.1-0.8,0.1c-1.8-0.1-3.5-0.3-5.3-0.4c-0.8,0-1.6-0.1-2.3,0.1c-1.7,0.4-3.4,0.3-5-0.4c-0.6-0.3-1.3-0.5-1.9-0.9
		c-1.1-0.7-2.3-0.9-3.5-0.7c-2.8,0.3-5.5,0.5-8.3,0.8c0.9,1.3,3.1,2.2,4.6,1.6c1.8-0.7,3.3-0.6,5,0.4c1.5,0.8,3.2,1.4,5.1,0.7
		c0.4-0.2,1.1,0.1,1.5,0.3c1.7,1,3.6,1.3,5.5,1.6c1,0.2,2.2-0.2,3.3-0.3c-1.3,0.8-2.7,0.9-4.2,0.6c-1.7-0.4-3.6-0.4-5.1-1.5
		c-0.2-0.2-0.6-0.2-0.9-0.1c-2,0.9-3.9,0.2-5.7-0.6c-1.4-0.7-2.7-0.8-4.1-0.1c-0.4,0.2-0.8,0.3-1.5,0.5c1,0.2,1.7,0.3,2.5,0.4
		c0.9,0.1,1.5,0.4,1.8,1.3c0.4,0.9,0.9,1.7,1.3,2.5c0,0-0.1,0.1-0.1,0.1c-0.4-0.5-1-1-1.2-1.6c-0.5-1.2-1.3-1.8-2.7-1.8
		c-1.1,0-2.3-0.4-3.4-0.7c-0.9-0.2-1.6-0.7-1.9-1.5c-0.6-1.3-1.6-1.8-3-1.8c-2.3,0-4.6-0.5-6.6-1.7c-0.7-0.4-1.4-0.8-1.9-1.4
		c-0.8-1-1.9-1.3-3-1c-1.8,0.4-3.5,0.8-5.2,1.4c-0.6,0.2-1.3,0.8-1.7,1.4c-3.1,5.8-6,11.7-7.7,18.1c-0.1,0.5-0.2,1-0.4,1.7
		c0.8-0.4,1.5-0.7,2.2-1c1.2-0.5,2.5-1.1,3.7-1.6c1-0.5,1.8-1,2.5-1.9c1.1-1.4,2.3-2.7,3.9-3.6c0.3-0.2,0.6-0.6,0.8-0.9
		c0.3-0.7,0.5-1.4,0.8-2.1c0.5-1.3,1.8-2.1,3.1-1.6c2.2,1,4.3,0.5,6.5,0.3c0.3,0,0.6-0.1,1-0.1c0.1-0.7,0.1-1.3,0.1-1.9
		c0,0,0.1,0,0.1,0c0,0.7,0,1.3,0,2.2c-0.8,0.2-1.7,0.4-2.5,0.5c1,0.5,3.2,0.7,4.8,0.4c0.8-0.2,1.6-0.3,2.4-0.4c0.8-0.1,1.6,0,2.3,0
		c-1.6,0.3-3.3,0.7-5.1,0.9c-2.8,0.3-5.5,0-8.3-0.6c-0.5-0.1-0.9-0.2-1.4-0.3c-1.4-0.3-1.7-0.1-2.3,1.3c-0.2,0.4-0.3,0.9-0.5,1.6
		c3.9-1,7.7-0.2,11.5-0.4c1-0.1,2,0.3,3,0.3c1.6,0.1,3.2,0,4.8,0.3c-1.2,0.1-2.4,0-3.5,0.2c-0.8,0.1-1.7-0.6-2.3,0.4
		c0,0-0.3,0-0.4-0.1c-0.6-0.5-1.4-0.4-2.2-0.4c-1.8,0-3.6,0-5.4,0c0.1,2.5,2.1,2.3,3.7,2.8c-1.2,0.3-2.2-0.1-3.1-0.5
		c-0.4-0.2-0.6-0.7-0.8-1.1c-0.5-1-0.8-1.2-1.9-1.1c-3.4,0.3-6.2,1.7-7.8,4.8c0.1,0.1,0.1,0.2,0.2,0.2c3.2-0.7,6.3,0.1,9.2,1.3
		c1.5,0.6,2.9,1,4.5,0.9c0.6-0.1,1.2,0,1.8,0.1c1.9,0.3,1.9,0.3,2.8-1.2c0.1,1.2-0.4,1.8-1.4,1.8c-0.6,0-1.3-0.1-1.9-0.2
		c-0.9-0.2-1.7-0.1-2.6,0.2c0.8,1.4,2.3,1.6,3.4,2.4c-1.2-0.1-2.3-0.5-3.1-1.4c-0.9-1-1.9-1.4-3.1-1.8c-1.5-0.4-3-0.8-4.5-1.3
		c-2.5-0.8-4.9-0.2-7.2,0.7c-2.2,0.9-4.3,2.2-6.4,3.4c-1.4,0.8-2.1,2-2.3,3.6c-0.4,4.4-1,8.8-1.3,13.3c-0.4,5.3,0.2,10.6,1.4,15.8
		c0.2,0.7,0.4,1.5,0.5,2.2c0.1,1.3,0.7,2.3,1.4,3.4c0.2,0.3,0.4,0.7,0.6,1.1c-4.4,0-8.8,0-13.2,0c0.1-0.2,0.2-0.5,0.3-0.7
		c0.5-1.1,0.9-2.1,0.7-3.4c-0.4-2.7-0.7-5.4-0.9-8.1c-0.2-2.1-0.2-4.3-0.2-6.4c0-0.4,0.1-0.8,0.2-1.1c0.9-3,1-6.2,1.5-9.3
		c0.2-1.3,0.2-2.8,0.6-4.1c0.3-1,0.6-1.9,1-2.9c0.8-2.5,0.4-5.1,0-7.6c-0.7-3.9-2.2-7.5-4.4-10.7c-1.8-2.6-3.3-5.2-4.5-8.1
		c-0.2-0.5-0.5-0.9-0.9-1.3c-1.1-1-2.2-1.9-3.3-2.8c-1.1-0.9-2.6-1-3.9-1.2c-0.6-0.1-1,0.2-1.2,0.9c-0.5,2.1-1.9,3.3-3.8,3.9
		c-1.2,0.4-2.2,1.1-3.5,1.4c-0.7,0.2-1.2,0.6-1.5,1.4C31.2,79.8,30.9,80,30.7,80.3c0-1.5,0.9-2.4,2.1-2.9c1-0.4,2-0.9,3-1.4
		c-0.3-0.2-0.3-0.2-0.5-0.4c2-0.1,3.1-0.8,3.8-2.5c0.1-0.3,0.2-0.5,0.2-0.8c0.2-0.9,0.7-1.3,1.6-1.4c0.3,0,0.6-0.1,0.9-0.1
		c0-0.1,0-0.2,0.1-0.3c-1.1-0.4-2.1-0.9-3.2-1.2c-1.7-0.6-3.3,0-4.8,0.6c-1.3,0.5-2.5,1.2-2.8,2.8c-0.1,0.4-0.5,0.7-0.6,1.1
		c-0.2,0.8-0.5,1.6-0.5,2.3c0.1,1.3-0.3,2.3-1.1,3.2c-0.4,0.4-0.7,0.9-0.7,1.4C29,80.7,29.9,80.5,30.7,80.3z M93.2,29.3
		c0-0.4,0.6-0.9-0.2-1.2c-1.1,0.9-2,1.9-2.5,3.2c-0.1,0.4-0.4,0.7-0.7,1.1C89,33.6,89,33.6,90.1,35c0.4-0.8,0.7-1.5,1.1-2.2
		c0.3-0.5,0.5-1,0.8-1.5c0.1,0.9-0.9,1.7-0.3,2.5c-0.5,0.5-1,1.1-1.3,1.4c0.4,0.9,0.7,1.5,0.9,2.2c0.2,0.7,0.4,1.5,0.7,2.6
		c1-2.3,1.9-4.1,2.7-6c0.7-1.5,0.2-3.6-1-4.8C93.5,29.2,93.3,29.3,93.2,29.3z M103.8,35.4c-1,1.8-2.5,2.9-4.3,4
		c0.6,1.8-0.2,3.2-0.8,4.5c0.5,1.4,1.1,2.5,1.2,3.6c0,1.2-0.6,2.4-0.9,3.8c2.5-1.1,4-2.8,4.9-5c0.2-0.4,0.1-0.9,0.1-1.4
		c0.1-0.1,0.4-0.2,0.5-0.4c0.3-0.6,0.6-1.2,0.9-1.9c0.6-1.4,2.2-2.6,0.7-4.3c0.2-1.2-0.4-2.1-1-3.1c-0.1-0.2-0.5-0.3-0.7-0.5
		c0.2-1.1-0.6-1.8-0.9-2.9c-1.7,1.2-3.3,2.3-4.8,3.4c-0.2,0.1-0.3,0.6-0.3,0.8c0.2,0.9,0.5,1.8,0.9,2.8c1.2-0.4,2.1-1.1,2.9-1.9
		C102.7,36.4,103.2,35.9,103.8,35.4z M60.3,74.6c-0.2,0.1-0.5,0.1-0.6,0.2c-0.8,2-1.6,3.9-0.6,6.2c1.1,2.5,1.9,5.1,2.9,7.6
		c0.2,0.4,0.4,0.7,0.8,1.3c1.7-3.8,3.8-7,5.3-10.8c-0.7-0.3-1.2-0.6-1.8-0.9c-0.8-0.3-1.8-0.5-2.6-0.9C62.4,76.7,61,76.1,60.3,74.6
		c1.7,1.4,3.7,2.3,5.9,2.8c-0.2-0.8-0.4-1.4-0.7-2c-0.1-0.3-0.4-0.7-0.7-0.8C63.4,74.3,61.8,74.1,60.3,74.6z M50.1,38.4
		c2.6,0.3,5,1,7.3-0.1c0.6-1.9,0.2-2.7-1.6-3.5c-0.3-0.1-0.6-0.2-0.9-0.4c-0.6-0.3-1-0.8-1-1.5c0-0.8,0.2-1.5,0.6-2.1
		c0.1,0.5,0.1,0.9,0,1.4c-0.2,1,0,1.4,0.9,1.7c0.8,0.3,1.7,0.6,2.5,0.9c1-3.3,1.4-6.8,2.9-9.9c0.1-0.3-0.1-1-0.3-1.3
		c-0.9-1.2-2-2.2-3-3.4c-1.7,0.7-3.4,1.7-4.5,3.4c-0.8,1.2-1.8,2.3-2.5,3.5c-0.4,0.7-0.6,1.6-0.7,2.4c-0.1,0.8,0,1.6,0,2.4
		c0,0.6-0.1,1.3,0.7,1.6c0.1,0.1,0.2,0.6,0.1,0.7C49.7,35.6,50.2,37,50.1,38.4z M75.4,68.8c-2.4-0.7-4.6-1.3-6.7-1.9
		c-0.3-0.1-0.6-0.1-0.9,0c-1,0.3-2,0.5-2.9,0.9c-0.6,0.3-1.3,0.6-1.7,1.1c-0.8,1-1.5,2.2-2.3,3.3c-0.3,0.5-0.4,1-0.7,1.6
		c2.1,0,4-0.3,5.8,0.6c-0.1,2.1,1.2,3.2,3,3.9c0.3-0.6,0.5-1.1,0.8-1.6c0.5-0.9,0.9-2,1.7-2.7C73.2,72.7,74,70.7,75.4,68.8z
		 M60.4,68.6c0.7-0.7,1.5-1.6,2.2-2.5c1.2-1.4,2.1-3.1,2.6-4.9c0.2-0.8,0.2-1.5-0.3-2.1c-0.9-1.1-1.7-2.1-2.6-3.2
		c-0.7-0.8-1.4-1.5-2.2-2.4c-0.3,0.6-0.8,1.1-0.9,1.6c-0.4,1.9-1.3,3.6-2.3,5.2c-0.9,1.5-0.4,4.1,0.9,5.4
		C58.7,66.7,59.5,67.7,60.4,68.6z M92.2,25.1c-1.4,1.6-2.7,3-4,4.4c-1.3,1.3-2,2.9-1.6,4.8c0.5,2.5,0.3,4.9-0.4,7.4
		c-0.9,3.1-0.6,6.4-0.6,9.9c0.3-0.5,0.5-0.7,0.7-1c1.1-2,2.2-3.9,3.3-5.9c0.6-1.1,0.7-2.1,0.3-3.2c-0.4-1.1-0.7-2.2-0.5-3.4
		c0.1-1.3,0.2-2.5-0.5-3.7c-0.4-0.8-0.2-1.6,0.5-2.3c0.3-0.3,0.6-0.8,0.8-1.2c0.4-1,1-1.7,1.8-2.4c0.4-0.4,0.8-0.6,1.2-0.9
		C92.7,26.6,92.4,25.9,92.2,25.1z M98.1,44.7c-1.1,1.1-2.2,1.6-3.5,2c-1.1,0.3-2.1,0.7-3.1,1.2c-0.6,0.3-1.4,0.7-1.7,1.3
		c-0.8,1.4-1.4,2.8-2.1,4.4c1.8-0.3,3.4-0.5,5-0.8c1.2-0.2,2.4-0.4,3.6-0.6c0.4-0.1,0.9-0.4,1.2-0.7C98.8,49.4,99.3,47.3,98.1,44.7z
		 M50.6,39.2c-0.3,0.8-0.8,1.5-0.8,2.2c-0.1,3.3,0,6.6,0,9.9c1.1-1.4,2.2-2.8,3.2-4.1c0.6-0.8,1.3-1.4,1.9-2.2
		c0.9-1.2,1.7-2.4,2-3.9C55,39.8,52.9,39.9,50.6,39.2z M97.6,35.8c-2.1,0.6-3.4,1.8-3.8,3.9c-0.1,0.6-0.4,1.2-0.6,1.8
		c-0.4,1-0.9,2-1.3,3c-0.3,0.7-0.9,1.4-0.8,2.5c2.3-1,4.9-1.2,6.8-3.1c-1.1-1.9-1.3-3.7,0.9-4.9C98.3,37.9,97.9,36.9,97.6,35.8z
		 M23.3,63.6c0-0.6-0.1-1.1,0-1.5c0.1-0.4,0.3-0.8,0.4-1.2c0.4-1.3,0.1-2.3-1.2-2.9c-1.6-0.8-3.3-1.2-5.4-1.6
		C18.7,59.3,20.6,61.7,23.3,63.6z M75.9,64.8c-2.2-0.4-5.4,0.4-6.5,1.7c2.1,0.6,4.2,1.2,6.1,1.7C77,67,76.4,65.9,75.9,64.8z
		 M74.3,55.6c0.4-0.5,0.9-1,0.9-1.8c-0.1-2.2-0.8-4.1-2.2-5.6c-1,1.5-0.8,3.1,0,4.6C73.3,53.8,73.7,54.7,74.3,55.6z M44.4,18
		c-0.6,1.6,0.3,2.6,0.7,3.8c0.4,1.2,0.8,2.5,1.7,3.5c0.2-0.9,0.3-1.7,0.4-2.6c0.3-1.6-0.1-2.9-1.5-3.9C45.3,18.6,44.9,18.4,44.4,18z
		 M75.4,63.7c-0.2-1.2-0.4-2.3-0.5-3.4c-0.1-1-0.1-2.1-0.1-3.1c-0.7,2.3-0.6,4.7-2.3,6.8C73.6,63.9,74.5,63.8,75.4,63.7z M89.8,36.6
		c-0.3,2.5,0,4.1,1,5.5C91.2,40.8,90.7,37.7,89.8,36.6z M76.5,56.6c0.7-1.3,1.9-2.5,0.9-4.1C75.9,53.6,76.5,55.1,76.5,56.6z
		 M105.7,26.2c-1.5,1.9-1.9,3.1-1.1,4.2C105.6,29.2,105.8,27.8,105.7,26.2z M118.4,77.8c-1.1-1.1-2.2-0.5-3.3-0.7
		c-0.3-0.1-0.6,0-0.9,0.2c-0.2,0.1-0.4,0.4-0.8,0.9C115.2,78,116.7,77.9,118.4,77.8z M98.2,43.2c0.7-1.2,1-2.3,0.6-3.5
		C97.4,40.7,97.3,41.2,98.2,43.2z"/>
	<path d="M105.8,87.4c1.8,0.6,3.6,1.2,5.4,1.8c-1.9-0.4-3.9-0.3-5.5-1.6C105.7,87.5,105.7,87.4,105.8,87.4z"/>
</g>
</svg>
