<?xml version="1.0" encoding="iso-8859-1"?>
<!-- Generator: Adobe Illustrator 19.0.0, SVG Export Plug-In . SVG Version: 6.00 Build 0)  -->
<svg version="1.1" id="Layer_1" xmlns="http://www.w3.org/2000/svg" xmlns:xlink="http://www.w3.org/1999/xlink" x="0px" y="0px"
	 viewBox="0 0 512.002 512.002" style="enable-background:new 0 0 512.002 512.002;" xml:space="preserve">
<g>
	<g>
		<path style="fill: rgb(248, 127, 26)" d="M264.534,189.28V34.135h42.667c2.27,0,4.437-0.896,6.033-2.5l17.067-17.067c3.337-3.337,3.337-8.73,0-12.066
			c-3.337-3.336-8.73-3.336-12.066,0l-14.566,14.566H179.201c-4.719,0-8.533,3.823-8.533,8.533c0,4.71,3.814,8.533,8.533,8.533
			h68.267V189.28c-85.427,4.463-153.6,74.923-153.6,161.143c0,89.097,72.73,161.579,162.133,161.579s162.133-72.482,162.133-161.579
			C418.134,264.203,349.962,193.743,264.534,189.28z M256.001,332.802c9.412,0,17.067,7.654,17.067,17.067
			c0,9.412-7.654,17.067-17.067,17.067s-17.067-7.654-17.067-17.067C238.934,340.457,246.589,332.802,256.001,332.802z
			 M256.001,494.935c-79.991,0-145.067-64.828-145.067-144.512c0-76.817,60.518-139.639,136.533-144.085v110.601
			c-14.677,3.814-25.6,17.067-25.6,32.922c0,6.315,1.835,12.151,4.838,17.229l-25.446,25.446h-30.592
			c-4.719,0-8.533,3.823-8.533,8.533s3.814,8.533,8.533,8.533h34.381c2.697,0,5.001-1.331,6.571-3.285l27.153-27.153
			c5.077,3.004,10.914,4.838,17.229,4.838c18.825,0,34.133-15.309,34.133-34.133c0-15.855-10.923-29.107-25.6-32.922V206.347
			c76.015,4.437,136.533,67.268,136.533,144.085C401.068,430.108,335.992,494.935,256.001,494.935z"/>
	</g>
</g>
<g>
</g>
<g>
</g>
<g>
</g>
<g>
</g>
<g>
</g>
<g>
</g>
<g>
</g>
<g>
</g>
<g>
</g>
<g>
</g>
<g>
</g>
<g>
</g>
<g>
</g>
<g>
</g>
<g>
</g>
</svg>
